# xmcd
#
# Track frame offsets: 
#        150
#        10295
#        19779
#        29216
#        38668
#        50365
#        59298
#        71012
#        82096
#        89802
#        100113
#        113857
#        127365
#        136744
#        150152
#        160432
#        171357
#        182322
#        194015
#        201903
#        220342
#        229645
#        239776
#        248133
#        263216
#
# Disc length: 3692 seconds
#
# Revision: 1
# Processed by: cddbd v1.5.2PL0 Copyright (c) Steve Scherf et al.
# Submitted via: ExactAudioCopy v1.0b3
#
DISCID=6f0e6a19
DTITLE=Campbell, Glen - Here I Am - The Early Years
DYEAR=1900
DGENRE=Country
TTITLE0=Death Valley
TTITLE1=Gee Cees, The featuring Glen Campbell  - Buzz Saw
TTITLE2=Gee Cees, The featuring Glen Campbell  - Annie Had A Party
TTITLE3=Campbell, Glen [as Billy Dolton] - Winkie Doll
TTITLE4=Turn Around, Look At Me
TTITLE5=Miracle Of Love
TTITLE6=Too Late To Worry - Too Blue To Cry
TTITLE7=Here I Am
TTITLE8=Kentucky Means Paradise
TTITLE9=Brenda
TTITLE10=How Do I Tell My Heart Not To Break
TTITLE11=Long Black Limousine
TTITLE12=Truck Driving Man
TTITLE13=There's More Pretty Girls Than One
TTITLE14=Weary Lonesome Blues
TTITLE15=No Vacancy
TTITLE16=Rainin' On The Mountain
TTITLE17=Brown's Ferry Blues
TTITLE18=Lonesome Jailhouse Blues
TTITLE19=100 Miles Away From Home
TTITLE20=This Old White Mule Of Mine
TTITLE21=Poor Boy Lookin' For A Home
TTITLE22=Divorce Me COD
TTITLE23=Dark As A Dungeon
TTITLE24=Long Black Limousine [LP Version]
EXTD=
EXTT0=
EXTT1=
EXTT2=
EXTT3=
EXTT4=
EXTT5=
EXTT6=
EXTT7=
EXTT8=
EXTT9=
EXTT10=
EXTT11=
EXTT12=
EXTT13=
EXTT14=
EXTT15=
EXTT16=
EXTT17=
EXTT18=
EXTT19=
EXTT20=
EXTT21=
EXTT22=
EXTT23=
EXTT24=
PLAYORDER=
